<svg width="62" height="49" viewBox="0 0 62 49" fill="none" xmlns="http://www.w3.org/2000/svg">
<path d="M1.90855 38.97V41.01H4.30855V41.94H1.90855V44.07H4.60855V45H0.768555V38.04H4.60855V38.97H1.90855ZM3.66855 36.56L1.45855 37.65V36.81L3.66855 35.59V36.56ZM8.1427 43.98L9.7027 39.49H10.9127L8.8127 45H7.4527L5.3627 39.49H6.5827L8.1427 43.98ZM16.8244 42.11C16.8244 42.3167 16.8111 42.5033 16.7844 42.67H12.5744C12.6077 43.11 12.7711 43.4633 13.0644 43.73C13.3577 43.9967 13.7177 44.13 14.1444 44.13C14.7577 44.13 15.1911 43.8733 15.4444 43.36H16.6744C16.5077 43.8667 16.2044 44.2833 15.7644 44.61C15.3311 44.93 14.7911 45.09 14.1444 45.09C13.6177 45.09 13.1444 44.9733 12.7244 44.74C12.3111 44.5 11.9844 44.1667 11.7444 43.74C11.5111 43.3067 11.3944 42.8067 11.3944 42.24C11.3944 41.6733 11.5077 41.1767 11.7344 40.75C11.9677 40.3167 12.2911 39.9833 12.7044 39.75C13.1244 39.5167 13.6044 39.4 14.1444 39.4C14.6644 39.4 15.1277 39.5133 15.5344 39.74C15.9411 39.9667 16.2577 40.2867 16.4844 40.7C16.7111 41.1067 16.8244 41.5767 16.8244 42.11ZM15.6344 41.75C15.6277 41.33 15.4777 40.9933 15.1844 40.74C14.8911 40.4867 14.5277 40.36 14.0944 40.36C13.7011 40.36 13.3644 40.4867 13.0844 40.74C12.8044 40.9867 12.6377 41.3233 12.5844 41.75H15.6344ZM15.1444 38.26V39.1L12.9344 38.01V37.04L15.1444 38.26ZM20.7263 39.4C21.1596 39.4 21.5463 39.49 21.8863 39.67C22.233 39.85 22.503 40.1167 22.6963 40.47C22.8896 40.8233 22.9863 41.25 22.9863 41.75V45H21.8563V41.92C21.8563 41.4267 21.733 41.05 21.4863 40.79C21.2396 40.5233 20.903 40.39 20.4763 40.39C20.0496 40.39 19.7096 40.5233 19.4563 40.79C19.2096 41.05 19.0863 41.4267 19.0863 41.92V45H17.9463V39.49H19.0863V40.12C19.273 39.8933 19.5096 39.7167 19.7963 39.59C20.0896 39.4633 20.3996 39.4 20.7263 39.4ZM29.4904 42.11C29.4904 42.3167 29.4771 42.5033 29.4504 42.67H25.2404C25.2738 43.11 25.4371 43.4633 25.7304 43.73C26.0238 43.9967 26.3838 44.13 26.8104 44.13C27.4238 44.13 27.8571 43.8733 28.1104 43.36H29.3404C29.1738 43.8667 28.8704 44.2833 28.4304 44.61C27.9971 44.93 27.4571 45.09 26.8104 45.09C26.2838 45.09 25.8104 44.9733 25.3904 44.74C24.9771 44.5 24.6504 44.1667 24.4104 43.74C24.1771 43.3067 24.0604 42.8067 24.0604 42.24C24.0604 41.6733 24.1738 41.1767 24.4004 40.75C24.6338 40.3167 24.9571 39.9833 25.3704 39.75C25.7904 39.5167 26.2704 39.4 26.8104 39.4C27.3304 39.4 27.7938 39.5133 28.2004 39.74C28.6071 39.9667 28.9238 40.2867 29.1504 40.7C29.3771 41.1067 29.4904 41.5767 29.4904 42.11ZM28.3004 41.75C28.2938 41.33 28.1438 40.9933 27.8504 40.74C27.5571 40.4867 27.1938 40.36 26.7604 40.36C26.3671 40.36 26.0304 40.4867 25.7504 40.74C25.4704 40.9867 25.3038 41.3233 25.2504 41.75H28.3004ZM37.2823 39.4C37.7156 39.4 38.1023 39.49 38.4423 39.67C38.789 39.85 39.059 40.1167 39.2523 40.47C39.4523 40.8233 39.5523 41.25 39.5523 41.75V45H38.4223V41.92C38.4223 41.4267 38.299 41.05 38.0523 40.79C37.8056 40.5233 37.469 40.39 37.0423 40.39C36.6156 40.39 36.2756 40.5233 36.0223 40.79C35.7756 41.05 35.6523 41.4267 35.6523 41.92V45H34.5223V41.92C34.5223 41.4267 34.399 41.05 34.1523 40.79C33.9056 40.5233 33.569 40.39 33.1423 40.39C32.7156 40.39 32.3756 40.5233 32.1223 40.79C31.8756 41.05 31.7523 41.4267 31.7523 41.92V45H30.6123V39.49H31.7523V40.12C31.939 39.8933 32.1756 39.7167 32.4623 39.59C32.749 39.4633 33.0556 39.4 33.3823 39.4C33.8223 39.4 34.2156 39.4933 34.5623 39.68C34.909 39.8667 35.1756 40.1367 35.3623 40.49C35.529 40.1567 35.789 39.8933 36.1423 39.7C36.4956 39.5 36.8756 39.4 37.2823 39.4ZM46.0529 42.11C46.0529 42.3167 46.0396 42.5033 46.0129 42.67H41.8029C41.8363 43.11 41.9996 43.4633 42.2929 43.73C42.5863 43.9967 42.9463 44.13 43.3729 44.13C43.9863 44.13 44.4196 43.8733 44.6729 43.36H45.9029C45.7363 43.8667 45.4329 44.2833 44.9929 44.61C44.5596 44.93 44.0196 45.09 43.3729 45.09C42.8463 45.09 42.3729 44.9733 41.9529 44.74C41.5396 44.5 41.2129 44.1667 40.9729 43.74C40.7396 43.3067 40.6229 42.8067 40.6229 42.24C40.6229 41.6733 40.7363 41.1767 40.9629 40.75C41.1963 40.3167 41.5196 39.9833 41.9329 39.75C42.3529 39.5167 42.8329 39.4 43.3729 39.4C43.8929 39.4 44.3563 39.5133 44.7629 39.74C45.1696 39.9667 45.4863 40.2867 45.7129 40.7C45.9396 41.1067 46.0529 41.5767 46.0529 42.11ZM44.8629 41.75C44.8563 41.33 44.7063 40.9933 44.4129 40.74C44.1196 40.4867 43.7563 40.36 43.3229 40.36C42.9296 40.36 42.5929 40.4867 42.3129 40.74C42.0329 40.9867 41.8663 41.3233 41.8129 41.75H44.8629ZM49.9548 39.4C50.3881 39.4 50.7748 39.49 51.1148 39.67C51.4615 39.85 51.7315 40.1167 51.9248 40.47C52.1181 40.8233 52.2148 41.25 52.2148 41.75V45H51.0848V41.92C51.0848 41.4267 50.9615 41.05 50.7148 40.79C50.4681 40.5233 50.1315 40.39 49.7048 40.39C49.2781 40.39 48.9381 40.5233 48.6848 40.79C48.4381 41.05 48.3148 41.4267 48.3148 41.92V45H47.1748V39.49H48.3148V40.12C48.5015 39.8933 48.7381 39.7167 49.0248 39.59C49.3181 39.4633 49.6281 39.4 49.9548 39.4ZM54.9989 40.42V43.47C54.9989 43.6767 55.0456 43.8267 55.1389 43.92C55.2389 44.0067 55.4056 44.05 55.6389 44.05H56.3389V45H55.4389C54.9256 45 54.5323 44.88 54.2589 44.64C53.9856 44.4 53.8489 44.01 53.8489 43.47V40.42H53.1989V39.49H53.8489V38.12H54.9989V39.49H56.3389V40.42H54.9989ZM59.3896 45.09C58.9563 45.09 58.5663 45.0133 58.2196 44.86C57.8796 44.7 57.6096 44.4867 57.4096 44.22C57.2096 43.9467 57.103 43.6433 57.0896 43.31H58.2696C58.2896 43.5433 58.3996 43.74 58.5996 43.9C58.8063 44.0533 59.063 44.13 59.3696 44.13C59.6896 44.13 59.9363 44.07 60.1096 43.95C60.2896 43.8233 60.3796 43.6633 60.3796 43.47C60.3796 43.2633 60.2796 43.11 60.0796 43.01C59.8863 42.91 59.5763 42.8 59.1496 42.68C58.7363 42.5667 58.3996 42.4567 58.1396 42.35C57.8796 42.2433 57.653 42.08 57.4596 41.86C57.273 41.64 57.1796 41.35 57.1796 40.99C57.1796 40.6967 57.2663 40.43 57.4396 40.19C57.613 39.9433 57.8596 39.75 58.1796 39.61C58.5063 39.47 58.8796 39.4 59.2996 39.4C59.9263 39.4 60.4296 39.56 60.8096 39.88C61.1963 40.1933 61.403 40.6233 61.4296 41.17H60.2896C60.2696 40.9233 60.1696 40.7267 59.9896 40.58C59.8096 40.4333 59.5663 40.36 59.2596 40.36C58.9596 40.36 58.7296 40.4167 58.5696 40.53C58.4096 40.6433 58.3296 40.7933 58.3296 40.98C58.3296 41.1267 58.383 41.25 58.4896 41.35C58.5963 41.45 58.7263 41.53 58.8796 41.59C59.033 41.6433 59.2596 41.7133 59.5596 41.8C59.9596 41.9067 60.2863 42.0167 60.5396 42.13C60.7996 42.2367 61.023 42.3967 61.2096 42.61C61.3963 42.8233 61.493 43.1067 61.4996 43.46C61.4996 43.7733 61.413 44.0533 61.2396 44.3C61.0663 44.5467 60.8196 44.74 60.4996 44.88C60.1863 45.02 59.8163 45.09 59.3896 45.09Z" fill="#A0A0A0"/>
<path d="M30 12H36V18H30V12Z" fill="#A0A0A0"/>
<path d="M38 4H36V2H34V4H28V2H26V4H24C22.897 4 22 4.897 22 6V20C22 21.103 22.897 22 24 22H38C39.103 22 40 21.103 40 20V6C40 4.897 39.103 4 38 4ZM38.001 20H24V8H38L38.001 20Z" fill="#A0A0A0"/>
</svg>
