<svg width="28" height="24" viewBox="0 0 28 24" fill="none" xmlns="http://www.w3.org/2000/svg">
<path d="M2.66667 5.33333V21.3333H22.6667V24H2.66667C0 24 0 21.3333 0 21.3333V5.33333H2.66667ZM25.3333 2.66667V16H8V2.66667H25.3333ZM25.7333 0H7.6C6.34667 0 5.33333 0.933334 5.33333 2.06667V16.6C5.33333 17.7467 6.34667 18.6667 7.6 18.6667H25.7333C26.9867 18.6667 28 17.7467 28 16.6V2.06667C28 0.933334 26.9867 0 25.7333 0ZM9.33333 4H13.3333V10.6667H9.33333V4ZM24 14.6667H9.33333V12H24V14.6667ZM24 6.66667H16V4H24V6.66667ZM24 10.6667H16V8H24V10.6667Z" fill="#5669FF"/>
</svg>
